<svg width="45" height="45" viewBox="0 0 45 45" fill="none" xmlns="http://www.w3.org/2000/svg">
<circle cx="22.5" cy="22.5" r="20.5" fill="white" stroke="black" stroke-width="4"/>
<path d="M12.276 29.967C12.2393 29.6443 12.199 29.164 12.155 28.526C12.111 27.8807 12.0707 27.1363 12.034 26.293C11.9973 25.4423 11.9607 24.5513 11.924 23.62C11.8947 22.6813 11.869 21.7573 11.847 20.848C11.8323 19.9387 11.825 19.099 11.825 18.329C11.825 17.8157 11.8287 17.3537 11.836 16.943C11.8507 16.525 11.869 16.1767 11.891 15.898C11.9643 15.8907 12.1403 15.8797 12.419 15.865C12.705 15.843 13.035 15.8247 13.409 15.81C13.783 15.7953 14.146 15.7843 14.498 15.777C14.8573 15.7623 15.147 15.755 15.367 15.755C15.3523 16.1437 15.345 16.5837 15.345 17.075C15.345 17.5663 15.345 18.032 15.345 18.472C15.345 19.022 15.3523 19.5903 15.367 20.177C15.3817 20.7563 15.3963 21.167 15.411 21.409C15.5723 21.3943 15.752 21.3797 15.95 21.365C16.1553 21.343 16.368 21.3283 16.588 21.321C16.808 21.3063 17.0243 21.2953 17.237 21.288C17.4497 21.2807 17.6477 21.2733 17.831 21.266C18.0217 21.2587 18.183 21.255 18.315 21.255C18.3223 21.0203 18.3333 20.6757 18.348 20.221C18.3627 19.759 18.3773 19.2493 18.392 18.692C18.4067 18.1273 18.4213 17.5773 18.436 17.042C18.4507 16.4993 18.469 16.0373 18.491 15.656C18.6597 15.6413 18.865 15.634 19.107 15.634C19.349 15.6267 19.5837 15.623 19.811 15.623C20.273 15.623 20.7093 15.6303 21.12 15.645C21.538 15.6597 21.8533 15.6817 22.066 15.711C22.0367 15.9163 22.0037 16.228 21.967 16.646C21.9377 17.064 21.9047 17.5553 21.868 18.12C21.8387 18.6847 21.8093 19.3007 21.78 19.968C21.7507 20.628 21.7213 21.31 21.692 22.014C21.67 22.7107 21.648 23.4 21.626 24.082C21.5967 24.8667 21.571 25.6367 21.549 26.392C21.5343 27.14 21.5197 27.8183 21.505 28.427C21.4977 29.0357 21.4903 29.5233 21.483 29.89C21.3217 29.9047 21.065 29.9193 20.713 29.934C20.3683 29.9487 19.9833 29.9633 19.558 29.978C19.1327 29.9853 18.7147 29.989 18.304 29.989C18.304 29.483 18.3003 28.9807 18.293 28.482C18.293 27.9833 18.293 27.4957 18.293 27.019C18.293 26.535 18.293 26.0693 18.293 25.622C18.293 25.1673 18.293 24.7347 18.293 24.324C18.1463 24.3313 17.9777 24.3387 17.787 24.346C17.5963 24.346 17.3983 24.3497 17.193 24.357C16.995 24.357 16.7933 24.3607 16.588 24.368C16.3827 24.368 16.1883 24.3717 16.005 24.379C15.829 24.379 15.675 24.379 15.543 24.379C15.565 24.7677 15.587 25.2407 15.609 25.798C15.631 26.348 15.653 26.9017 15.675 27.459C15.697 28.0163 15.7153 28.5113 15.73 28.944C15.752 29.3693 15.763 29.6553 15.763 29.802C15.5943 29.8313 15.3523 29.857 15.037 29.879C14.729 29.8937 14.3953 29.9083 14.036 29.923C13.684 29.9377 13.3467 29.9487 13.024 29.956C12.7087 29.9633 12.4593 29.967 12.276 29.967ZM24.4723 30.275C24.4283 29.4537 24.3733 28.449 24.3073 27.261C24.2486 26.0657 24.1826 24.7897 24.1093 23.433C24.0433 22.069 23.9773 20.716 23.9113 19.374C23.8453 18.0247 23.7866 16.789 23.7353 15.667C24.0213 15.6377 24.3879 15.6083 24.8353 15.579C25.2826 15.5497 25.7666 15.5203 26.2873 15.491C26.8079 15.4617 27.3176 15.436 27.8163 15.414C28.3149 15.392 28.7586 15.381 29.1473 15.381C29.7119 15.381 30.2766 15.436 30.8413 15.546C31.4133 15.6487 31.9339 15.832 32.4033 16.096C32.8799 16.36 33.2613 16.7377 33.5473 17.229C33.8333 17.713 33.9763 18.34 33.9763 19.11C33.9763 19.8653 33.7819 20.5767 33.3933 21.244C33.0119 21.9113 32.5023 22.3953 31.8643 22.696C32.0329 23.0113 32.2199 23.3927 32.4253 23.84C32.6306 24.2873 32.8359 24.7677 33.0413 25.281C33.2539 25.7943 33.4556 26.304 33.6463 26.81C33.8369 27.3087 34.0056 27.767 34.1523 28.185C34.3063 28.603 34.4199 28.944 34.4933 29.208C34.2806 29.34 33.9946 29.4647 33.6353 29.582C33.2833 29.6993 32.9203 29.8057 32.5463 29.901C32.1723 29.989 31.8459 30.0623 31.5673 30.121C31.2959 30.1797 31.1309 30.209 31.0723 30.209C31.0136 29.9157 30.9219 29.5307 30.7973 29.054C30.6726 28.5773 30.5296 28.0603 30.3683 27.503C30.2069 26.9457 30.0419 26.3993 29.8733 25.864C29.7119 25.3213 29.5616 24.8373 29.4223 24.412C29.2829 23.9867 29.1729 23.6713 29.0922 23.466C28.9236 23.5027 28.7513 23.5357 28.5753 23.565C28.4066 23.5943 28.2453 23.6163 28.0913 23.631C27.9446 23.6457 27.8089 23.6567 27.6843 23.664C27.7136 23.8327 27.7429 24.1113 27.7723 24.5C27.8089 24.8813 27.8456 25.325 27.8823 25.831C27.9189 26.337 27.9519 26.8577 27.9813 27.393C28.0179 27.921 28.0473 28.4197 28.0693 28.889C28.0986 29.3583 28.1169 29.7433 28.1243 30.044C27.8309 30.11 27.4716 30.1577 27.0463 30.187C26.6283 30.2237 26.1919 30.2457 25.7373 30.253C25.2899 30.2677 24.8683 30.275 24.4723 30.275ZM27.3873 21.024C27.6146 21.024 27.8456 21.0167 28.0803 21.002C28.3223 20.98 28.6083 20.9397 28.9383 20.881C29.4149 20.8003 29.7963 20.6903 30.0823 20.551C30.3683 20.4043 30.5736 20.221 30.6983 20.001C30.8303 19.7737 30.8963 19.5097 30.8963 19.209C30.8963 18.8057 30.8046 18.516 30.6213 18.34C30.4379 18.1567 30.1849 18.0393 29.8623 17.988C29.5469 17.9367 29.1766 17.911 28.7513 17.911C28.6339 17.911 28.4946 17.9183 28.3333 17.933C28.1719 17.9403 28.0106 17.9513 27.8493 17.966C27.6879 17.9807 27.5413 17.9953 27.4093 18.01C27.2773 18.0173 27.1819 18.0247 27.1233 18.032C27.1306 18.1567 27.1453 18.3217 27.1673 18.527C27.1893 18.7323 27.2113 18.9597 27.2333 19.209C27.2553 19.451 27.2736 19.693 27.2883 19.935C27.3103 20.1697 27.3286 20.386 27.3433 20.584C27.3653 20.7747 27.3799 20.9213 27.3873 21.024Z" fill="black"/>
</svg>
